# xmcd CD database file
#
# Track frame offsets:
#	150
#	48844
#	96919
#	120994
#	166967
#	219919
#	245341
#	268444
#	289069
#
# Disc length: 4779 seconds
#
# Revision: 0
# Processed by: cddbd v1.5.2PL0 Copyright (c) Steve Scherf et al.
# Submitted via: CDex 1.51
#
DISCID=7c12a909
DTITLE=Антон Пляскин - Мелодии Байкала
DYEAR=2008
DGENRE=New Age
TTITLE0=Солнце в зените
TTITLE1=Из света и воздуха
TTITLE2=Мелодия Байкала
TTITLE3=Перемены
TTITLE4=Скользя над облаками
TTITLE5=Дождливый сон
TTITLE6=Последнее Неизвестное
TTITLE7=Загадки Воды
TTITLE8=Вода Ветер Огонь
EXTD=YEAR: 2008
EXTT0=
EXTT1=
EXTT2=
EXTT3=
EXTT4=
EXTT5=
EXTT6=
EXTT7=
EXTT8=
PLAYORDER=
